# Blender 4.2.3 LTS
# www.blender.org
mtllib nwu_ballpython.mtl
o ballpython_t
v 0.194654 0.170664 -0.298096
v 0.195847 -0.183613 -0.295925
v 0.205289 0.181574 0.014565
v 0.206891 -0.188404 0.016660
v 0.272680 0.206764 0.207753
v 0.264591 -0.227754 0.205149
v 0.281279 0.216375 0.352829
v 0.267979 -0.227023 0.350788
v 0.252160 0.207321 0.503481
v 0.255169 -0.220304 0.501453
v 0.196153 0.187222 0.687033
v 0.208225 -0.218713 0.666516
v 0.133642 0.102186 0.905858
v 0.162946 -0.212455 0.896660
v 0.117865 0.047832 1.099939
v 0.139449 -0.187993 1.090759
v 0.110738 0.032664 1.198319
v 0.117655 -0.160327 1.201781
v 0.062897 0.010726 1.233983
v 0.057498 -0.110500 1.245371
v 0.000000 -0.215771 -0.295434
v -0.000000 0.213095 0.011595
v 0.000000 -0.213630 0.017222
v 0.000000 0.208560 -0.300279
v -0.000000 0.253395 0.197097
v -0.000000 -0.265709 0.208775
v -0.000000 0.272478 0.351680
v -0.000000 -0.266072 0.351041
v -0.000000 0.267624 0.505347
v 0.000000 -0.266110 0.499421
v -0.000000 0.222186 0.684855
v -0.000000 -0.264149 0.660449
v -0.000000 0.136082 0.902768
v -0.000000 -0.261066 0.914487
v -0.000000 0.065501 1.101804
v -0.000000 -0.239172 1.105142
v -0.000000 0.041410 1.205284
v -0.000000 -0.175238 1.209795
v -0.000000 0.012692 1.241623
v -0.000000 -0.111584 1.256980
v 0.222341 -0.003702 -0.295262
v 0.223247 0.000498 0.017974
v 0.375410 0.006535 0.215069
v 0.406282 0.013756 0.348444
v 0.360698 0.006287 0.499191
v 0.271137 -0.011869 0.678679
v 0.219028 -0.047379 0.906199
v 0.194506 -0.068133 1.097636
v 0.135804 -0.061454 1.202698
v 0.059887 -0.060447 1.241596
v -0.000000 -0.059868 1.257772
v 0.000000 -0.142086 -16.130882
v 0.035612 -0.092432 -16.169079
v 0.043304 -0.112988 -16.129587
v 0.000000 -0.053473 -16.132015
v 0.043308 -0.057389 -16.130903
v 0.000000 -0.096480 -16.182016
v 0.525126 -0.273729 -8.510455
v 0.582074 -0.103349 -8.512422
v 0.000000 0.561151 -8.513755
v 0.000000 -0.356167 -8.509883
v 0.525158 0.392130 -8.514216
v 0.360698 0.293717 -4.173575
v 0.000000 -0.303484 -4.169963
v 0.000000 0.409305 -4.173183
v 0.399178 -0.046494 -4.172071
v 0.360705 -0.232108 -4.170438
v 0.000000 0.528234 -6.324919
v 0.531675 -0.078836 -6.323667
v 0.480073 -0.275095 -6.321810
v 0.480105 0.374076 -6.325366
v 0.000000 -0.358123 -6.321272
v 0.253594 0.213567 -2.254588
v 0.000000 -0.262531 -2.251537
v 0.000000 0.294396 -2.254378
v 0.280307 -0.025269 -2.253253
v 0.253670 -0.199720 -2.251938
v 0.000000 0.251033 -12.776445
v 0.339871 -0.106473 -12.775365
v 0.306851 -0.206206 -12.772420
v 0.306838 0.160328 -12.775460
v 0.000000 -0.270198 -12.773311
v 0.446606 0.300225 -10.673604
v 0.000000 -0.325316 -10.669462
v 0.000000 0.441825 -10.673163
v 0.495129 -0.114768 -10.671887
v 0.446642 -0.249512 -10.670010
v 0.000000 0.096907 -14.768730
v 0.173351 -0.100698 -14.768730
v 0.159146 -0.178988 -14.768730
v 0.159183 0.049235 -14.768730
v 0.000000 -0.234795 -14.768730
v 0.236739 0.201542 -1.765465
v 0.222041 0.190905 -1.276342
v 0.207899 0.180472 -0.787219
v 0.000000 -0.248469 -1.762511
v 0.000000 -0.236850 -1.273485
v 0.000000 -0.225855 -0.784459
v 0.000000 0.228285 -0.788803
v 0.000000 0.249119 -1.277328
v 0.000000 0.270586 -1.765853
v 0.235281 -0.008482 -0.784759
v 0.249157 -0.013554 -1.274257
v 0.263575 -0.019040 -1.763755
v 0.208821 -0.186640 -0.784929
v 0.222690 -0.190213 -1.273932
v 0.237105 -0.194103 -1.762935
v 0.000000 0.321210 -2.734079
v 0.000000 0.348638 -3.213781
v 0.000000 0.377533 -3.693481
v 0.307849 -0.029992 -2.732958
v 0.336276 -0.035121 -3.212662
v 0.366294 -0.040607 -3.692366
v 0.278473 -0.207312 -2.731563
v 0.304070 -0.214975 -3.211187
v 0.331097 -0.223043 -3.690813
v 0.331057 0.271552 -3.693828
v 0.304012 0.251438 -3.214081
v 0.278405 0.232327 -2.734334
v 0.000000 -0.292043 -3.690357
v 0.000000 -0.281880 -3.210750
v 0.000000 -0.272199 -2.731143
v 0.453731 0.356742 -5.787418
v 0.422828 0.335961 -5.249471
v 0.391034 0.314364 -4.711523
v 0.000000 -0.348587 -5.783445
v 0.000000 -0.334619 -5.245617
v 0.000000 -0.318939 -4.707791
v 0.000000 0.439732 -4.711117
v 0.000000 0.471592 -5.249051
v 0.000000 0.502358 -5.786985
v 0.432818 -0.054475 -4.709970
v 0.468092 -0.062886 -5.247869
v 0.502387 -0.071272 -5.785767
v 0.391021 -0.244272 -4.708280
v 0.422807 -0.256594 -5.246123
v 0.453702 -0.267579 -5.783966
v 0.498536 -0.279162 -6.868970
v 0.511656 -0.279844 -7.416132
v 0.519875 -0.277610 -7.963294
v 0.552249 -0.086649 -6.870855
v 0.566905 -0.093296 -7.418043
v 0.576132 -0.098746 -7.965232
v 0.000000 0.543886 -6.872127
v 0.000000 0.553949 -7.419337
v 0.000000 0.559006 -7.966547
v 0.519901 0.391759 -7.967003
v 0.511681 0.389438 -7.419791
v 0.498564 0.383693 -6.872578
v 0.000000 -0.361164 -7.962730
v 0.000000 -0.364068 -7.415577
v 0.000000 -0.363255 -6.868424
v 0.000000 -0.337124 -10.129567
v 0.000000 -0.345872 -9.589672
v 0.000000 -0.351245 -9.049778
v 0.465737 0.325496 -10.133758
v 0.488237 0.349172 -9.593910
v 0.506814 0.370571 -9.054064
v 0.000000 0.533685 -9.053605
v 0.000000 0.506322 -9.593459
v 0.000000 0.475400 -10.133312
v 0.561759 -0.107605 -9.052287
v 0.541191 -0.111482 -9.592155
v 0.516280 -0.113877 -10.132022
v 0.506770 -0.269893 -9.050343
v 0.488196 -0.265670 -9.590231
v 0.465711 -0.258792 -10.130121
v 0.000000 0.390157 -11.198983
v 0.000000 0.340492 -11.724805
v -0.000000 0.293907 -12.250625
v 0.460690 -0.113343 -11.197757
v 0.424439 -0.111232 -11.723627
v 0.382846 -0.108811 -12.249496
v 0.415650 -0.238992 -11.195611
v 0.383013 -0.227790 -11.721214
v 0.345557 -0.216635 -12.246819
v 0.345546 0.191648 -12.249997
v 0.382998 0.225708 -11.724532
v 0.415617 0.262136 -11.199067
v 0.000000 -0.283475 -12.247350
v 0.000000 -0.297672 -11.721387
v 0.000000 -0.311928 -11.195423
v 0.192023 0.076735 -14.270412
v 0.227272 0.102614 -13.772096
v 0.266427 0.130234 -13.273779
v 0.000000 -0.242892 -14.269876
v 0.000000 -0.250180 -13.771020
v 0.000000 -0.259190 -13.272166
v 0.000000 0.208916 -13.274515
v 0.000000 0.170420 -13.772588
v 0.000000 0.134557 -14.270658
v 0.294245 -0.103891 -13.273706
v 0.250105 -0.102057 -13.772046
v 0.210357 -0.100961 -14.270389
v 0.266427 -0.197548 -13.271497
v 0.227265 -0.190461 -13.770574
v 0.192003 -0.184757 -14.269651
v 0.049653 -0.098136 -16.134304
v 0.000000 0.055681 -15.223159
v -0.000000 0.003048 -15.677587
v 0.131168 -0.161331 -15.222349
v 0.091302 -0.137663 -15.675970
v 0.091315 -0.014027 -15.676847
v 0.131197 0.022546 -15.222788
v 0.000000 -0.185509 -15.676831
v 0.000000 -0.216905 -15.222781
v 0.144560 -0.101141 -15.223922
v 0.102263 -0.100045 -15.679111
v 0.238030 0.017131 0.779067
v 0.213219 0.124959 0.776244
v 0.270912 0.021933 0.673492
v 0.246102 0.129761 0.670669
v 0.221291 -0.007383 0.639337
v 0.189053 0.132722 0.635669
v 0.271913 0.078590 0.659014
v 0.266669 0.005418 0.729437
v 0.234432 0.145522 0.725769
v 0.229188 0.072350 0.796192
v 0.178566 -0.013622 0.776514
v 0.146328 0.126483 0.772846
v 0.162705 0.151270 0.703690
v 0.204914 -0.032170 0.708493
v 0.155839 0.055465 0.795895
v 0.271194 0.080394 0.734256
v 0.211780 0.063635 0.616288
v -0.194654 0.170664 -0.298096
v -0.195847 -0.183613 -0.295925
v -0.205289 0.181574 0.014565
v -0.206891 -0.188404 0.016660
v -0.222341 -0.003702 -0.295262
v -0.223247 0.000498 0.017974
v -0.206891 -0.188404 0.016660
v -0.205289 0.181574 0.014565
v -0.035612 -0.092432 -16.169079
v -0.043304 -0.112988 -16.129587
v -0.043308 -0.057389 -16.130903
v -0.525126 -0.273729 -8.510455
v -0.582074 -0.103349 -8.512422
v -0.525158 0.392130 -8.514216
v -0.360698 0.293717 -4.173575
v -0.399178 -0.046494 -4.172071
v -0.360705 -0.232108 -4.170438
v -0.531675 -0.078836 -6.323667
v -0.480073 -0.275095 -6.321810
v -0.480105 0.374076 -6.325366
v -0.253594 0.213567 -2.254588
v -0.280307 -0.025269 -2.253253
v -0.253670 -0.199720 -2.251938
v -0.339871 -0.106473 -12.775365
v -0.306851 -0.206206 -12.772420
v -0.306838 0.160328 -12.775460
v -0.446606 0.300225 -10.673604
v -0.495129 -0.114768 -10.671887
v -0.446642 -0.249512 -10.670010
v -0.173351 -0.100698 -14.768730
v -0.159146 -0.178988 -14.768730
v -0.159183 0.049235 -14.768730
v -0.236739 0.201542 -1.765465
v -0.222041 0.190905 -1.276342
v -0.207899 0.180472 -0.787219
v -0.235281 -0.008482 -0.784759
v -0.249157 -0.013554 -1.274257
v -0.263575 -0.019040 -1.763755
v -0.208821 -0.186640 -0.784929
v -0.222690 -0.190213 -1.273932
v -0.237105 -0.194103 -1.762935
v -0.307849 -0.029992 -2.732958
v -0.336276 -0.035121 -3.212662
v -0.366294 -0.040607 -3.692366
v -0.278473 -0.207312 -2.731563
v -0.304070 -0.214975 -3.211187
v -0.331097 -0.223043 -3.690813
v -0.331057 0.271552 -3.693828
v -0.304012 0.251438 -3.214081
v -0.278405 0.232327 -2.734334
v -0.453731 0.356742 -5.787418
v -0.422828 0.335961 -5.249471
v -0.391034 0.314364 -4.711523
v -0.432818 -0.054475 -4.709970
v -0.468092 -0.062886 -5.247869
v -0.502387 -0.071272 -5.785767
v -0.391021 -0.244272 -4.708280
v -0.422807 -0.256594 -5.246123
v -0.453702 -0.267579 -5.783966
v -0.498536 -0.279162 -6.868970
v -0.511656 -0.279844 -7.416132
v -0.519875 -0.277610 -7.963294
v -0.552249 -0.086649 -6.870855
v -0.566905 -0.093296 -7.418043
v -0.576132 -0.098746 -7.965232
v -0.519901 0.391759 -7.967003
v -0.511681 0.389438 -7.419791
v -0.498564 0.383693 -6.872578
v -0.465737 0.325496 -10.133758
v -0.488237 0.349172 -9.593910
v -0.506814 0.370571 -9.054064
v -0.561759 -0.107605 -9.052287
v -0.541191 -0.111482 -9.592155
v -0.516280 -0.113877 -10.132022
v -0.506770 -0.269893 -9.050343
v -0.488196 -0.265670 -9.590231
v -0.465711 -0.258792 -10.130121
v -0.460690 -0.113343 -11.197757
v -0.424439 -0.111232 -11.723627
v -0.382846 -0.108811 -12.249496
v -0.415650 -0.238992 -11.195611
v -0.383013 -0.227790 -11.721214
v -0.345557 -0.216635 -12.246819
v -0.345546 0.191648 -12.249997
v -0.382998 0.225708 -11.724532
v -0.415617 0.262136 -11.199067
v -0.192023 0.076735 -14.270412
v -0.227272 0.102614 -13.772096
v -0.266427 0.130234 -13.273779
v -0.294245 -0.103891 -13.273706
v -0.250105 -0.102057 -13.772046
v -0.210357 -0.100961 -14.270389
v -0.266427 -0.197548 -13.271497
v -0.227265 -0.190461 -13.770574
v -0.192003 -0.184757 -14.269651
v -0.049653 -0.098136 -16.134304
v -0.131168 -0.161331 -15.222349
v -0.091302 -0.137663 -15.675970
v -0.091315 -0.014027 -15.676847
v -0.131197 0.022546 -15.222788
v -0.144560 -0.101141 -15.223922
v -0.102263 -0.100045 -15.679111
v -0.238030 0.017131 0.779067
v -0.213219 0.124959 0.776244
v -0.270912 0.021933 0.673492
v -0.246102 0.129761 0.670669
v -0.221291 -0.007383 0.639337
v -0.189053 0.132722 0.635669
v -0.271913 0.078590 0.659014
v -0.266669 0.005418 0.729437
v -0.234432 0.145522 0.725769
v -0.229188 0.072350 0.796192
v -0.178566 -0.013622 0.776514
v -0.146328 0.126483 0.772846
v -0.162705 0.151270 0.703690
v -0.204914 -0.032170 0.708493
v -0.155839 0.055465 0.795895
v -0.271194 0.080394 0.734256
v -0.211780 0.063635 0.616288
v 0.123745 -0.123875 1.201969
v 0.344932 -0.098540 0.210620
v 0.261734 -0.130906 0.671679
v 0.218676 -0.127307 0.901580
v 0.180824 -0.122673 1.094507
v 0.324021 -0.130016 0.500551
v 0.346242 -0.117727 0.349724
v -0.223247 0.000498 0.017974
v -0.205289 0.181574 0.014565
v -0.206891 -0.188404 0.016660
v -0.272680 0.206764 0.207753
v -0.264591 -0.227754 0.205149
v -0.281279 0.216375 0.352829
v -0.267979 -0.227023 0.350788
v -0.252160 0.207321 0.503481
v -0.255169 -0.220304 0.501453
v -0.196153 0.187222 0.687033
v -0.208225 -0.218713 0.666516
v -0.133642 0.102186 0.905858
v -0.162946 -0.212455 0.896660
v -0.117865 0.047832 1.099939
v -0.139449 -0.187993 1.090759
v -0.110738 0.032664 1.198319
v -0.117655 -0.160327 1.201781
v -0.062897 0.010726 1.233983
v -0.057498 -0.110500 1.245371
v -0.223247 0.000498 0.017974
v -0.375410 0.006535 0.215069
v -0.406282 0.013756 0.348444
v -0.360698 0.006287 0.499191
v -0.271137 -0.011869 0.678679
v -0.219028 -0.047379 0.906199
v -0.194506 -0.068133 1.097636
v -0.135804 -0.061454 1.202698
v -0.059887 -0.060447 1.241596
v -0.123745 -0.123875 1.201969
v -0.344932 -0.098540 0.210620
v -0.261734 -0.130906 0.671679
v -0.218676 -0.127307 0.901580
v -0.180824 -0.122673 1.094507
v -0.324021 -0.130016 0.500551
v -0.346242 -0.117727 0.349724
vn 0.9668 0.0063 -0.2553
vn 0.5799 0.7601 -0.2930
vn 0.9177 0.0487 -0.3943
vn 0.6871 -0.7265 0.0098
vn -0.0657 -0.9737 -0.2183
vn -0.0000 -1.0000 0.0070
vn 0.6968 0.7172 0.0110
vn 1.0000 0.0034 0.0088
vn 0.6526 -0.7276 -0.2115
vn 0.5658 -0.7855 -0.2509
vn -0.0075 -0.9999 0.0141
vn 0.5254 -0.8506 0.0190
vn 0.5372 -0.8357 0.1142
vn 0.0001 -0.9474 -0.3202
vn 0.5635 0.8260 0.0171
vn 0.9966 0.0668 0.0485
vn 0.9413 0.1008 0.3222
vn -0.0087 -0.9997 0.0244
vn 0.5682 -0.8112 0.1381
vn 0.5894 -0.7965 0.1351
vn 0.0013 -0.9723 -0.2338
vn 0.6017 0.7559 0.2580
vn 0.9322 0.1426 0.3326
vn 0.9543 0.1854 0.2344
vn 0.5445 0.8005 0.2504
vn 0.9548 0.1544 0.2538
vn 0.5694 0.7484 0.3400
vn -0.0008 -0.9320 -0.3624
vn 0.5998 -0.7647 0.2357
vn -0.0000 -0.9821 -0.1882
vn 0.5227 -0.6362 0.5675
vn 0.8133 0.0699 0.5777
vn -0.0000 -0.9381 0.3464
vn 0.3150 -0.2694 0.9100
vn 0.3088 0.3739 0.8746
vn 0.3898 0.0650 0.9186
vn -0.0000 0.2341 0.9722
vn -0.0143 0.0925 0.9956
vn -0.0000 0.7401 0.6725
vn 0.5439 0.6977 0.4663
vn 0.0087 0.9672 0.2537
vn -0.0000 0.8321 0.5546
vn 0.5946 0.7231 0.3514
vn -0.0000 0.9761 0.2175
vn 0.0812 0.9871 0.1384
vn 0.6513 0.7343 -0.1913
vn 0.0728 0.9861 -0.1491
vn 0.9922 -0.0023 -0.1247
vn 0.6370 -0.7601 -0.1286
vn 0.5584 -0.0144 -0.8295
vn -0.0780 0.9795 -0.1856
vn -0.0001 -0.5783 0.8158
vn 0.7666 -0.1702 0.6192
vn 0.8833 -0.3465 0.3158
vn 0.9341 -0.3111 0.1753
vn 0.9027 -0.3337 0.2717
vn 0.8731 -0.4297 0.2302
vn 0.8852 -0.4651 0.0122
vn 0.6773 0.7150 -0.1735
vn 0.8792 -0.3785 -0.2892
vn -0.0000 0.9873 -0.1587
vn -0.0000 -0.0166 -0.9999
vn -0.0000 -0.9899 -0.1418
vn -0.0000 -0.9959 -0.0899
vn 0.6354 -0.7667 -0.0923
vn -0.0000 0.9937 -0.1125
vn -0.0000 -1.0000 0.0072
vn 0.4659 -0.8844 0.0278
vn -0.0000 -0.9999 0.0158
vn 0.9991 -0.0013 -0.0433
vn 0.7444 0.6635 -0.0751
vn 0.7497 0.6591 -0.0592
vn 0.3945 -0.9183 -0.0340
vn 0.3965 -0.9176 -0.0277
vn 0.7513 0.6580 -0.0519
vn -0.0000 0.9997 -0.0234
vn 0.7521 0.6587 -0.0217
vn 0.9979 0.0004 0.0645
vn 0.5417 -0.8392 0.0482
vn 0.9979 0.0003 0.0642
vn 0.7501 0.6572 0.0735
vn 0.7503 0.6572 0.0718
vn 0.5660 -0.8231 0.0464
vn -0.0000 -0.9996 0.0293
vn -0.0000 0.9982 0.0606
vn -0.0000 0.9980 0.0631
vn 0.9983 0.0002 0.0580
vn 0.9990 0.0002 0.0449
vn 0.7507 0.6576 0.0632
vn 0.7514 0.6581 0.0472
vn 0.4837 -0.8743 0.0397
vn -0.0000 0.9993 0.0382
vn -0.0000 0.9986 0.0525
vn 0.7392 0.6722 0.0423
vn -0.0000 0.9988 0.0488
vn -0.0000 0.9992 0.0395
vn 0.6563 -0.7538 0.0314
vn -0.0000 -0.9997 0.0241
vn 0.6420 -0.7658 0.0387
vn 0.9990 0.0006 0.0458
vn 0.7480 0.6614 0.0551
vn 0.9995 0.0011 0.0330
vn -0.0000 0.9964 -0.0843
vn 0.7223 0.6848 -0.0971
vn -0.0000 0.9966 -0.0827
vn -0.0000 -0.9995 -0.0304
vn 0.4359 -0.8988 -0.0466
vn 0.4162 -0.9081 -0.0457
vn 0.9968 -0.0015 -0.0799
vn 0.7227 0.6846 -0.0953
vn 0.9964 -0.0008 -0.0849
vn 0.4033 -0.9150 -0.0108
vn 0.9999 -0.0000 0.0130
vn 0.4156 -0.9095 -0.0005
vn 0.7522 0.6588 0.0110
vn 0.3988 -0.9168 -0.0189
vn -0.0000 -1.0000 -0.0091
vn -0.0000 -0.9999 -0.0110
vn -0.0000 0.9973 -0.0734
vn 0.7440 0.6624 -0.0872
vn -0.0000 0.9969 -0.0789
vn -0.0000 -0.9997 -0.0237
vn 0.5991 -0.7991 -0.0500
vn 0.5572 -0.8293 -0.0424
vn 0.9972 -0.0004 -0.0749
vn 0.7417 0.6651 -0.0871
vn 0.9976 -0.0003 -0.0691
vn -0.0000 0.9997 0.0234
vn 0.7519 0.6585 0.0310
vn 0.9996 0.0026 0.0286
vn 0.6784 -0.7342 0.0269
vn 0.9995 0.0018 0.0301
vn 0.6672 -0.7443 0.0283
vn 0.7090 0.7042 0.0375
vn 0.7252 0.6874 0.0391
vn -0.0000 -0.9999 0.0167
vn -0.0000 -0.9998 0.0185
vn -0.0000 -0.9998 0.0217
vn -0.0000 1.0000 0.0095
vn -0.0000 0.9994 0.0343
vn -0.0000 0.9993 0.0363
vn -0.0000 0.9984 0.0564
vn 0.7503 0.6578 0.0656
vn -0.0000 0.9983 0.0585
vn 0.7503 0.6576 0.0683
vn 0.6184 -0.7847 0.0432
vn -0.0000 -0.9997 0.0246
vn 0.5917 -0.8050 0.0439
vn -0.0000 -0.9997 0.0263
vn 0.9983 0.0005 0.0576
vn 0.9982 0.0004 0.0602
vn -0.0000 0.9983 0.0578
vn 0.7504 0.6574 0.0693
vn -0.0000 0.9983 0.0581
vn 0.7504 0.6573 0.0697
vn -0.0000 -0.9995 0.0312
vn 0.5215 -0.8519 0.0485
vn -0.0000 -0.9996 0.0298
vn 0.5022 -0.8635 0.0469
vn -0.0000 -0.9997 0.0243
vn 0.9980 0.0003 0.0639
vn 0.9979 0.0003 0.0646
vn -0.0000 1.0000 0.0065
vn 0.7521 0.6587 0.0196
vn -0.0000 0.9999 0.0138
vn 0.9995 0.0001 0.0317
vn 0.9998 -0.0000 0.0211
vn 0.4488 -0.8935 0.0162
vn 0.4321 -0.9018 0.0065
vn -0.0000 -1.0000 -0.0058
vn -0.0000 -1.0000 -0.0000
vn -0.0000 -0.9998 -0.0201
vn -0.0000 -0.9997 -0.0249
vn -0.0000 -0.9999 -0.0147
vn 0.3983 -0.9170 -0.0229
vn -0.0000 0.9971 -0.0766
vn -0.0000 0.9985 -0.0539
vn 0.7511 0.6579 -0.0559
vn -0.0000 0.9987 -0.0507
vn 0.9993 -0.0012 -0.0380
vn 0.9999 -0.0009 -0.0135
vn 0.9991 -0.0013 -0.0422
vn 0.9986 -0.0013 -0.0525
vn 0.3966 -0.9171 -0.0409
vn 0.9977 -0.0013 -0.0677
vn 0.4038 -0.9138 -0.0438
vn 0.9973 -0.0015 -0.0739
vn 0.7352 0.6714 -0.0935
vn 0.7272 0.6798 -0.0950
vn -0.0000 -0.9996 -0.0286
vn -0.0000 -0.9995 -0.0302
vn -0.0000 0.9957 -0.0926
vn -0.0000 0.9960 -0.0891
vn 0.4672 -0.8829 -0.0466
vn 0.9961 -0.0007 -0.0878
vn 0.5087 -0.8598 -0.0441
vn 0.9966 -0.0005 -0.0820
vn 0.7258 0.6809 -0.0982
vn 0.7333 0.6737 -0.0917
vn -0.0000 -0.9996 -0.0292
vn -0.0000 -0.9996 -0.0271
vn -0.0000 -0.9997 -0.0247
vn -0.0000 0.9967 -0.0812
vn -0.0000 0.9972 -0.0749
vn 0.9946 -0.0009 -0.1034
vn 0.7083 0.6939 -0.1297
vn 0.6232 -0.7788 -0.0711
vn 0.9969 -0.0003 -0.0783
vn 0.7323 0.6732 -0.1026
vn -0.0000 0.9956 -0.0937
vn -0.0000 -0.9993 -0.0362
vn -0.0000 -0.9979 -0.0640
vn 0.5722 0.1104 -0.8127
vn 0.5780 0.7153 -0.3927
vn 0.8664 0.1872 -0.4630
vn 0.9282 0.2214 0.2992
vn 0.2350 0.6652 0.7087
vn 0.4462 0.1259 0.8860
vn 0.5029 -0.8563 0.1177
vn 0.4938 -0.4596 0.7381
vn 0.2577 -0.6061 0.7525
vn 0.0770 0.9946 0.0692
vn 0.4978 0.8455 0.1935
vn 0.8369 -0.4095 -0.3632
vn 0.6543 -0.5482 -0.5209
vn 0.0077 0.0279 0.9996
vn 0.8148 -0.5324 0.2296
vn -0.6871 -0.7265 0.0098
vn -0.9690 -0.0002 -0.2470
vn -0.6968 0.7172 0.0110
vn -1.0000 0.0034 0.0088
vn -0.9922 -0.0023 -0.1247
vn -0.5584 -0.0144 -0.8295
vn -0.6370 -0.7600 -0.1286
vn -0.6773 0.7149 -0.1735
vn -0.6542 -0.7269 -0.2092
vn -0.6354 -0.7667 -0.0923
vn -0.7083 0.6939 -0.1297
vn -0.4659 -0.8844 0.0278
vn -0.4488 -0.8935 0.0162
vn -0.9990 -0.0013 -0.0440
vn -0.7444 0.6635 -0.0751
vn -0.9986 -0.0013 -0.0525
vn -0.3945 -0.9183 -0.0341
vn -0.3965 -0.9176 -0.0277
vn -0.7513 0.6580 -0.0519
vn -0.9979 0.0004 0.0645
vn -0.5417 -0.8392 0.0481
vn -0.5660 -0.8231 0.0465
vn -0.7501 0.6572 0.0735
vn -0.9979 0.0003 0.0642
vn -0.9983 0.0002 0.0580
vn -0.4837 -0.8743 0.0397
vn -0.7507 0.6576 0.0632
vn -0.9990 0.0002 0.0449
vn -0.7392 0.6722 0.0423
vn -0.6563 -0.7538 0.0314
vn -0.9989 0.0006 0.0460
vn -0.9995 0.0011 0.0330
vn -0.7223 0.6848 -0.0971
vn -0.7227 0.6845 -0.0954
vn -0.4359 -0.8988 -0.0466
vn -0.4162 -0.9081 -0.0457
vn -0.9967 -0.0015 -0.0812
vn -0.9999 -0.0000 0.0130
vn -0.4033 -0.9150 -0.0108
vn -0.4156 -0.9095 -0.0005
vn -0.7521 0.6587 -0.0220
vn -0.9999 -0.0007 -0.0135
vn -0.3988 -0.9168 -0.0189
vn -0.7440 0.6624 -0.0872
vn -0.7417 0.6651 -0.0871
vn -0.5991 -0.7991 -0.0500
vn -0.5572 -0.8293 -0.0424
vn -0.9972 -0.0004 -0.0750
vn -0.9976 -0.0003 -0.0693
vn -0.7514 0.6581 0.0472
vn -0.7519 0.6586 0.0310
vn -0.9996 0.0026 0.0286
vn -0.9995 0.0019 0.0301
vn -0.6784 -0.7342 0.0269
vn -0.6672 -0.7443 0.0282
vn -0.7090 0.7042 0.0375
vn -0.7252 0.6874 0.0391
vn -0.7480 0.6614 0.0550
vn -0.7503 0.6578 0.0656
vn -0.7503 0.6576 0.0683
vn -0.6420 -0.7658 0.0387
vn -0.6184 -0.7847 0.0433
vn -0.5917 -0.8050 0.0440
vn -0.9984 0.0005 0.0572
vn -0.9982 0.0005 0.0598
vn -0.7503 0.6572 0.0718
vn -0.7504 0.6574 0.0693
vn -0.7504 0.6573 0.0697
vn -0.5215 -0.8519 0.0485
vn -0.5022 -0.8635 0.0470
vn -0.9980 0.0003 0.0631
vn -0.9980 0.0003 0.0636
vn -0.7522 0.6588 0.0110
vn -0.7521 0.6587 0.0196
vn -0.9995 0.0001 0.0312
vn -0.9998 -0.0000 0.0209
vn -0.4321 -0.9018 0.0065
vn -0.3983 -0.9170 -0.0229
vn -0.7497 0.6591 -0.0592
vn -0.0000 0.9983 -0.0585
vn -0.7511 0.6579 -0.0559
vn -0.9993 -0.0012 -0.0380
vn -0.9991 -0.0013 -0.0422
vn -0.3966 -0.9171 -0.0409
vn -0.9977 -0.0013 -0.0678
vn -0.4038 -0.9138 -0.0438
vn -0.9973 -0.0015 -0.0739
vn -0.7352 0.6714 -0.0935
vn -0.7272 0.6798 -0.0950
vn -0.9964 -0.0008 -0.0849
vn -0.4672 -0.8829 -0.0467
vn -0.9961 -0.0007 -0.0878
vn -0.5087 -0.8598 -0.0439
vn -0.9966 -0.0005 -0.0820
vn -0.7258 0.6809 -0.0981
vn -0.7333 0.6737 -0.0917
vn -0.9946 -0.0009 -0.1034
vn -0.6232 -0.7788 -0.0712
vn -0.9969 -0.0003 -0.0783
vn -0.7323 0.6732 -0.1026
vn -0.5722 0.1104 -0.8127
vn -0.5780 0.7153 -0.3927
vn -0.3551 0.7523 -0.5549
vn -0.9282 0.2214 0.2992
vn -0.2350 0.6652 0.7087
vn -0.4978 0.8455 0.1935
vn -0.5029 -0.8563 0.1177
vn -0.4938 -0.4596 0.7382
vn -0.8148 -0.5324 0.2296
vn -0.0770 0.9946 0.0692
vn -0.8369 -0.4096 -0.3632
vn -0.6543 -0.5482 -0.5209
vn -0.0077 0.0279 0.9996
vn -0.4462 0.1259 0.8860
vn -0.8664 0.1872 -0.4630
vn -0.8666 -0.0154 -0.4988
vn -0.6320 0.7333 -0.2507
vn -0.5157 0.7616 -0.3924
vn -0.5560 -0.7968 -0.2366
vn -0.5432 -0.8327 0.1077
vn -0.5327 -0.8459 0.0280
vn -0.9289 0.0961 -0.3578
vn -0.5980 0.7993 0.0598
vn -0.9498 0.0832 0.3016
vn -0.9953 0.0770 0.0590
vn -0.5808 -0.8011 0.1448
vn -0.5495 -0.8282 0.1102
vn -0.9285 0.1491 0.3401
vn -0.5837 0.7808 0.2230
vn -0.9542 0.1988 0.2235
vn -0.5745 0.7638 0.2941
vn -0.5614 0.7512 0.3472
vn -0.5808 0.7509 0.3143
vn -0.5744 -0.7744 0.2652
vn -0.5031 -0.6354 0.5858
vn -0.7238 0.1826 0.6654
vn -0.9379 0.1850 0.2936
vn -0.2828 -0.2589 0.9236
vn -0.3473 0.4423 0.8269
vn -0.5659 0.6070 0.5579
vn -0.3580 0.1009 0.9283
vn -0.0000 0.7594 0.6507
vn -0.7545 -0.1402 0.6411
vn -0.8833 -0.3428 0.3197
vn -0.9267 -0.3246 0.1894
vn -0.9007 -0.3544 0.2513
vn -0.8756 -0.4172 0.2435
vn -0.8932 -0.4484 0.0332
vn -0.8725 -0.3857 -0.2999
vn -0.5863 -0.7039 -0.4009
vn 0.3551 0.7523 -0.5549
vn -0.0415 0.6944 0.7184
vn -0.6473 0.7285 -0.2243
vn -0.2577 -0.6061 0.7525
vn 0.0415 0.6944 0.7184
vt 0.572335 0.008109
vt 0.599105 0.038438
vt 0.572523 0.040493
vt 0.722597 0.057658
vt 0.747282 0.021167
vt 0.746335 0.057825
vt 0.679314 0.057601
vt 0.700618 0.020162
vt 0.700678 0.057517
vt 0.513931 0.006483
vt 0.543935 0.010638
vt 0.544027 0.037350
vt 0.508085 0.055751
vt 0.544016 0.054802
vt 0.544440 0.072991
vt 0.508995 0.034907
vt 0.599239 0.054731
vt 0.573124 0.054288
vt 0.572681 0.070249
vt 0.514436 0.100122
vt 0.543532 0.094632
vt 0.546141 0.125481
vt 0.510088 0.077215
vt 0.600244 0.071699
vt 0.571580 0.093939
vt 0.568691 0.123817
vt 0.581059 0.149236
vt 0.566916 0.146653
vt 0.590507 0.125631
vt 0.524555 0.135679
vt 0.552644 0.148585
vt 0.537089 0.160543
vt 0.558162 0.159815
vt 0.567782 0.158901
vt 0.550718 0.172161
vt 0.562645 0.168432
vt 0.576000 0.166544
vt 0.568347 0.168162
vt 0.579087 0.173761
vt 0.569196 0.176385
vt 0.584749 0.170884
vt 0.577308 0.160103
vt 0.596141 0.159607
vt 0.624114 0.102980
vt 0.598506 0.095058
vt 0.634929 0.055734
vt 0.632081 0.077772
vt 0.599090 0.011261
vt 0.633469 0.033378
vt 0.887701 0.972455
vt 0.889408 0.972330
vt 0.887013 0.975685
vt 0.655043 0.020939
vt 0.679300 0.020104
vt 0.561664 0.176067
vt 0.561837 0.159466
vt 0.560422 0.147532
vt 0.557773 0.124623
vt 0.555438 0.094337
vt 0.555693 0.071898
vt 0.557229 0.054569
vt 0.883947 0.972300
vt 0.722933 0.020431
vt 0.559743 0.039084
vt 0.879966 0.975597
vt 0.887303 0.979895
vt 0.894606 0.975308
vt 0.905303 0.926767
vt 0.893621 0.925068
vt 0.868139 0.926992
vt 0.791143 0.827862
vt 0.731483 0.766550
vt 0.788216 0.763587
vt 0.900732 0.273738
vt 0.851288 0.336409
vt 0.848823 0.273468
vt 0.916393 0.337146
vt 0.918732 0.274065
vt 0.845467 0.146862
vt 0.779748 0.085332
vt 0.844289 0.083959
vt 0.704079 0.459695
vt 0.726880 0.515548
vt 0.704719 0.516006
vt 0.667211 0.459592
vt 0.664727 0.515881
vt 0.725876 0.459264
vt 0.769752 0.512339
vt 0.620641 0.512030
vt 0.626629 0.456111
vt 0.707212 0.704632
vt 0.707963 0.767031
vt 0.657214 0.704489
vt 0.655215 0.766919
vt 0.730701 0.704134
vt 0.596550 0.763288
vt 0.601802 0.700338
vt 0.675582 0.232026
vt 0.642583 0.287972
vt 0.646540 0.230580
vt 0.722741 0.231858
vt 0.754094 0.288227
vt 0.723315 0.289754
vt 0.702423 0.290005
vt 0.673936 0.289947
vt 0.701829 0.232010
vt 0.818286 0.525648
vt 0.863221 0.583313
vt 0.825859 0.587224
vt 0.950503 0.526223
vt 0.907084 0.583654
vt 0.909388 0.521848
vt 0.895998 0.521598
vt 0.860442 0.521443
vt 0.894751 0.583478
vt 0.922780 0.084505
vt 0.902358 0.020105
vt 0.924608 0.020251
vt 0.843669 0.020105
vt 0.921845 0.147476
vt 0.985176 0.086580
vt 0.982201 0.150428
vt 0.846778 0.762359
vt 0.872689 0.819110
vt 0.853188 0.820864
vt 0.925080 0.762853
vt 0.899744 0.819500
vt 0.901505 0.760648
vt 0.891393 0.760403
vt 0.870325 0.760239
vt 0.890405 0.819239
vt 0.592566 0.827545
vt 0.653777 0.830363
vt 0.700969 0.116244
vt 0.722284 0.116311
vt 0.701350 0.174168
vt 0.722426 0.174110
vt 0.678396 0.116396
vt 0.677015 0.174257
vt 0.747329 0.115695
vt 0.749210 0.173231
vt 0.751394 0.230760
vt 0.655573 0.057594
vt 0.653093 0.115568
vt 0.649970 0.173115
vt 0.637655 0.344131
vt 0.671846 0.346734
vt 0.632294 0.400143
vt 0.669591 0.403184
vt 0.757507 0.344367
vt 0.724031 0.346443
vt 0.761319 0.400411
vt 0.724905 0.402871
vt 0.765398 0.456409
vt 0.702887 0.346770
vt 0.703456 0.403259
vt 0.614237 0.574757
vt 0.662124 0.578811
vt 0.607865 0.637523
vt 0.659574 0.641774
vt 0.774715 0.575086
vt 0.728281 0.578553
vt 0.779660 0.637834
vt 0.729588 0.641477
vt 0.784309 0.700632
vt 0.705555 0.579019
vt 0.706389 0.641962
vt 0.587619 0.956605
vt 0.652808 0.894156
vt 0.652110 0.958421
vt 0.589689 0.892004
vt 0.708794 0.830529
vt 0.709547 0.894280
vt 0.732037 0.830085
vt 0.732270 0.893863
vt 0.732303 0.958032
vt 0.986949 0.021800
vt 0.794403 0.956788
vt 0.793116 0.892276
vt 0.974224 0.277815
vt 0.969278 0.341407
vt 0.978543 0.214181
vt 0.920434 0.210734
vt 0.796551 0.340270
vt 0.786807 0.213063
vt 0.847036 0.210100
vt 0.782899 0.149260
vt 0.901774 0.147239
vt 0.901864 0.084390
vt 0.901342 0.210443
vt 0.899721 0.336800
vt 0.914184 0.398529
vt 0.898572 0.398166
vt 0.911738 0.460115
vt 0.897255 0.459801
vt 0.854325 0.397859
vt 0.857495 0.459571
vt 0.963494 0.403107
vt 0.957190 0.464711
vt 0.803432 0.402215
vt 0.810745 0.463991
vt 0.905086 0.642505
vt 0.893574 0.642298
vt 0.903245 0.701578
vt 0.892463 0.701356
vt 0.865785 0.642165
vt 0.868126 0.701219
vt 0.943663 0.587694
vt 0.937084 0.645973
vt 0.930825 0.704351
vt 0.833256 0.645526
vt 0.840278 0.703898
vt 0.889224 0.925231
vt 0.879011 0.925050
vt 0.896913 0.872462
vt 0.889753 0.872434
vt 0.875289 0.872220
vt 0.859564 0.874066
vt 0.919480 0.821388
vt 0.913396 0.874376
vt 0.587987 0.241534
vt 0.574668 0.247515
vt 0.576004 0.241077
vt 0.568436 0.240788
vt 0.561709 0.247020
vt 0.560867 0.240499
vt 0.569182 0.221237
vt 0.562204 0.234061
vt 0.555079 0.226370
vt 0.567689 0.260338
vt 0.568147 0.248356
vt 0.575163 0.234556
vt 0.582853 0.227431
vt 0.548885 0.240041
vt 0.568725 0.233219
vt 0.252718 0.021167
vt 0.277403 0.057658
vt 0.253665 0.057825
vt 0.299382 0.020162
vt 0.320686 0.057601
vt 0.299322 0.057517
vt 0.112299 0.972455
vt 0.112987 0.975685
vt 0.110592 0.972330
vt 0.344957 0.020939
vt 0.344427 0.057594
vt 0.116053 0.972300
vt 0.277067 0.020431
vt 0.120034 0.975597
vt 0.112697 0.979895
vt 0.105394 0.975308
vt 0.094697 0.926767
vt 0.106379 0.925068
vt 0.131861 0.926992
vt 0.120989 0.925050
vt 0.208857 0.827862
vt 0.268517 0.766550
vt 0.267963 0.830085
vt 0.099268 0.273738
vt 0.148712 0.336409
vt 0.100279 0.336800
vt 0.083607 0.337146
vt 0.081268 0.274065
vt 0.154533 0.146862
vt 0.220252 0.085332
vt 0.217101 0.149260
vt 0.295921 0.459695
vt 0.273120 0.515548
vt 0.274124 0.459264
vt 0.332789 0.459592
vt 0.295281 0.516006
vt 0.230248 0.512339
vt 0.234602 0.456409
vt 0.379359 0.512030
vt 0.373371 0.456111
vt 0.292788 0.704632
vt 0.269299 0.704134
vt 0.342786 0.704489
vt 0.292037 0.767031
vt 0.211784 0.763587
vt 0.215691 0.700632
vt 0.403450 0.763288
vt 0.398198 0.700338
vt 0.357417 0.287972
vt 0.324418 0.232026
vt 0.353460 0.230580
vt 0.277259 0.231858
vt 0.245906 0.288227
vt 0.248606 0.230760
vt 0.297577 0.290005
vt 0.298171 0.232010
vt 0.181714 0.525648
vt 0.136779 0.583313
vt 0.139558 0.521443
vt 0.092916 0.583654
vt 0.049497 0.526223
vt 0.090612 0.521848
vt 0.104002 0.521598
vt 0.097642 0.020105
vt 0.077220 0.084505
vt 0.075392 0.020251
vt 0.155711 0.083959
vt 0.098136 0.084390
vt 0.014824 0.086580
vt 0.078155 0.147476
vt 0.017799 0.150428
vt 0.153222 0.762359
vt 0.127311 0.819110
vt 0.129675 0.760239
vt 0.100256 0.819500
vt 0.074920 0.762853
vt 0.098495 0.760648
vt 0.108607 0.760403
vt 0.109595 0.819239
vt 0.344785 0.766919
vt 0.407434 0.827545
vt 0.346223 0.830363
vt 0.299031 0.116244
vt 0.298650 0.174168
vt 0.277716 0.116311
vt 0.277574 0.174110
vt 0.321604 0.116396
vt 0.322985 0.174257
vt 0.252671 0.115695
vt 0.250790 0.173231
vt 0.350030 0.173115
vt 0.346907 0.115568
vt 0.362345 0.344131
vt 0.326064 0.289947
vt 0.367706 0.400143
vt 0.328154 0.346734
vt 0.330409 0.403184
vt 0.276685 0.289754
vt 0.242493 0.344367
vt 0.275969 0.346443
vt 0.238681 0.400411
vt 0.275095 0.402871
vt 0.297113 0.346770
vt 0.296544 0.403259
vt 0.385763 0.574757
vt 0.335273 0.515881
vt 0.392135 0.637523
vt 0.337876 0.578811
vt 0.340426 0.641774
vt 0.225285 0.575086
vt 0.271719 0.578553
vt 0.220340 0.637834
vt 0.270412 0.641477
vt 0.294445 0.579019
vt 0.293611 0.641962
vt 0.156331 0.020105
vt 0.347192 0.894156
vt 0.412381 0.956605
vt 0.347890 0.958421
vt 0.410311 0.892004
vt 0.291206 0.830529
vt 0.290453 0.894280
vt 0.289737 0.958421
vt 0.267730 0.893863
vt 0.267697 0.958032
vt 0.205597 0.956788
vt 0.206884 0.892276
vt 0.025776 0.277815
vt 0.030722 0.341407
vt 0.021457 0.214181
vt 0.079566 0.210734
vt 0.151177 0.273468
vt 0.203449 0.340270
vt 0.213193 0.213063
vt 0.208559 0.276728
vt 0.152964 0.210100
vt 0.098226 0.147239
vt 0.098658 0.210443
vt 0.085816 0.398529
vt 0.101428 0.398166
vt 0.088262 0.460115
vt 0.102745 0.459801
vt 0.145675 0.397859
vt 0.142505 0.459571
vt 0.036506 0.403107
vt 0.042810 0.464711
vt 0.196568 0.402215
vt 0.189255 0.463991
vt 0.105249 0.583478
vt 0.094914 0.642505
vt 0.106426 0.642298
vt 0.096755 0.701578
vt 0.107537 0.701356
vt 0.134215 0.642165
vt 0.131874 0.701219
vt 0.056337 0.587694
vt 0.062916 0.645973
vt 0.069175 0.704351
vt 0.174141 0.587224
vt 0.166744 0.645526
vt 0.159722 0.703898
vt 0.110776 0.925231
vt 0.103087 0.872462
vt 0.110247 0.872434
vt 0.124711 0.872220
vt 0.146812 0.820864
vt 0.140436 0.874066
vt 0.080520 0.821388
vt 0.086604 0.874376
vt 0.412013 0.241534
vt 0.425332 0.247515
vt 0.418207 0.255205
vt 0.431564 0.240788
vt 0.438291 0.247020
vt 0.431853 0.248356
vt 0.430818 0.221237
vt 0.437796 0.234061
vt 0.431275 0.233219
vt 0.432311 0.260338
vt 0.424837 0.234556
vt 0.417147 0.227431
vt 0.451115 0.240041
vt 0.439133 0.240499
vt 0.423996 0.241077
vt 0.427665 0.008109
vt 0.400895 0.038438
vt 0.400910 0.011261
vt 0.486069 0.006483
vt 0.491005 0.034907
vt 0.455973 0.037350
vt 0.491915 0.055751
vt 0.489912 0.077215
vt 0.455560 0.072991
vt 0.455984 0.054802
vt 0.427477 0.040493
vt 0.400761 0.054731
vt 0.427319 0.070249
vt 0.426876 0.054288
vt 0.485564 0.100122
vt 0.475445 0.135679
vt 0.453859 0.125481
vt 0.456468 0.094632
vt 0.428420 0.093939
vt 0.399756 0.071699
vt 0.431309 0.123817
vt 0.418941 0.149236
vt 0.409493 0.125631
vt 0.401494 0.095058
vt 0.462911 0.160543
vt 0.447356 0.148585
vt 0.449282 0.172161
vt 0.441838 0.159815
vt 0.432218 0.158901
vt 0.433084 0.146653
vt 0.438336 0.176067
vt 0.437355 0.168432
vt 0.424000 0.166544
vt 0.422692 0.160103
vt 0.431653 0.168162
vt 0.420913 0.173761
vt 0.415251 0.170884
vt 0.403859 0.159607
vt 0.389821 0.133404
vt 0.375886 0.102980
vt 0.365071 0.055734
vt 0.367919 0.077772
vt 0.366531 0.033378
vt 0.371388 0.006483
vt 0.430804 0.176385
vt 0.438163 0.159466
vt 0.439578 0.147532
vt 0.442227 0.124623
vt 0.444562 0.094337
vt 0.444307 0.071898
vt 0.442771 0.054569
vt 0.440257 0.039084
vt 0.456065 0.010638
vt 0.610179 0.133404
vt 0.628612 0.006483
vt 0.779169 0.020706
vt 0.710263 0.958421
vt 0.791441 0.276728
vt 0.581793 0.255205
vt 0.554018 0.254145
vt 0.320700 0.020104
vt 0.220831 0.020706
vt 0.013051 0.021800
vt 0.444921 0.226370
vt 0.445982 0.254145
s 1
g Head
usemtl Material
f 42/1/1 5/2/2 43/3/3
g Section1
f 2/4/4 23/5/5 21/6/6
f 1/7/7 42/8/1 41/9/8
g Head
f 23/10/5 4/11/9 6/12/10
f 28/13/11 8/14/12 10/15/13
f 26/16/14 6/12/10 8/14/12
f 43/3/3 7/17/15 44/18/16
f 7/17/15 45/19/17 44/18/16
f 32/20/18 12/21/19 14/22/20
f 30/23/21 10/15/13 12/21/19
f 9/24/22 46/25/23 45/19/17
f 47/26/24 15/27/25 48/28/26
f 46/25/23 13/29/27 47/26/24
f 34/30/28 14/22/20 16/31/29
f 36/32/30 16/31/29 18/33/31
f 15/27/25 49/34/32 48/28/26
f 38/35/33 18/33/31 20/36/34
f 49/34/32 19/37/35 50/38/36
f 50/38/36 39/39/37 51/40/38
f 37/41/39 19/37/35 17/42/40
f 13/29/27 35/43/41 15/27/25
f 35/43/41 17/42/40 15/27/25
f 31/44/42 13/29/27 11/45/43
f 27/46/44 9/24/22 7/17/15
f 29/47/45 11/45/43 9/24/22
f 3/48/46 25/49/47 5/2/2
f 5/2/2 27/46/44 7/17/15
g Section32
f 198/50/48 54/51/49 53/52/50
g Section1
f 1/7/7 22/53/51 3/54/46
g Head
f 20/36/34 51/40/38 40/55/52
f 18/33/31 345/56/53 20/36/34
f 349/57/54 18/33/31 16/31/29
f 12/21/19 348/58/55 14/22/20
f 348/58/55 16/31/29 14/22/20
f 10/15/13 347/59/56 12/21/19
f 8/14/12 350/60/57 10/15/13
f 6/12/10 351/61/58 8/14/12
g Section32
f 56/62/59 198/50/48 53/52/50
g Section1
f 41/9/8 4/63/9 2/4/4
g Head
f 4/11/9 346/64/60 6/12/10
g Section32
f 55/65/61 53/52/50 57/66/62
f 52/67/63 53/52/50 54/51/49
f 205/68/64 54/51/49 202/69/65
f 200/70/66 56/62/59 55/65/61
g Section14
f 152/71/67 70/72/68 72/73/69
g Section21
f 164/74/70 83/75/71 156/76/72
f 87/77/73 164/74/70 167/78/74
g Section18
f 158/79/75 60/80/76 62/81/77
g Section9
f 113/82/78 67/83/79 66/84/80
f 117/85/81 66/84/80 63/86/82
f 116/87/83 64/88/84 67/83/79
f 117/85/81 65/89/85 110/90/86
g Section13
f 134/91/87 70/72/68 69/92/88
f 123/93/89 69/92/88 71/94/90
f 137/95/91 72/73/69 70/72/68
f 123/93/89 68/96/92 131/97/93
g Section5
f 93/98/94 75/99/95 101/100/96
f 107/101/97 74/102/98 77/103/99
f 93/98/94 76/104/100 73/105/101
f 107/101/97 76/104/100 104/106/102
g Section25
f 170/107/103 81/108/104 78/109/105
f 180/110/106 80/111/107 176/112/108
f 173/113/109 81/108/104 177/114/110
f 173/113/109 80/111/107 79/115/111
g Section17
f 58/116/112 143/117/113 140/118/114
f 143/117/113 62/81/77 147/119/115
g Section18
f 165/120/116 61/121/117 155/122/118
g Section29
f 191/123/119 91/124/120 88/125/121
f 186/126/122 90/127/123 197/128/124
f 194/129/125 91/124/120 183/130/126
f 197/128/124 89/131/127 194/129/125
g Section14
f 144/132/128 71/94/90 149/133/129
g Section2
f 2/4/4 102/134/130 41/9/8
g Section3
f 105/135/131 103/136/132 102/134/130
g Section4
f 106/137/133 104/106/102 103/136/132
g Section2
f 1/7/7 102/134/130 95/138/134
g Section3
f 95/138/134 103/136/132 94/139/135
g Section4
f 94/139/135 104/106/102 93/98/94
g Section2
f 2/4/4 98/140/136 105/135/131
g Section3
f 105/135/131 97/141/137 106/137/133
g Section4
f 106/137/133 96/142/138 107/101/97
g Section2
f 24/143/139 95/138/134 99/144/140
g Section3
f 95/138/134 100/145/141 99/144/140
g Section4
f 94/139/135 101/100/96 100/145/141
g Section6
f 73/105/101 108/146/142 75/99/95
g Section7
f 119/147/143 109/148/144 108/146/142
g Section8
f 118/149/145 110/90/86 109/148/144
g Section6
f 77/103/99 122/150/98 114/151/146
g Section7
f 114/151/146 121/152/147 115/153/148
g Section8
f 115/153/148 120/154/149 116/87/83
g Section6
f 73/105/101 111/155/150 119/147/143
g Section7
f 119/147/143 112/156/151 118/149/145
g Section8
f 118/149/145 113/82/78 117/85/81
g Section6
f 76/104/100 114/151/146 111/155/150
g Section7
f 111/155/150 115/153/148 112/156/151
g Section8
f 112/156/151 116/87/83 113/82/78
g Section10
f 63/86/82 129/157/152 65/89/85
g Section11
f 125/158/153 130/159/154 129/157/152
g Section12
f 124/160/155 131/97/93 130/159/154
g Section10
f 67/83/79 128/161/156 135/162/157
g Section11
f 135/162/157 127/163/158 136/164/159
g Section12
f 136/164/159 126/165/160 137/95/91
g Section10
f 63/86/82 132/166/161 125/158/153
g Section11
f 125/158/153 133/167/162 124/160/155
g Section12
f 124/160/155 134/91/87 123/93/89
g Section10
f 66/84/80 135/162/157 132/166/161
g Section11
f 132/166/161 136/164/159 133/167/162
g Section12
f 133/167/162 137/95/91 134/91/87
g Section17
f 60/80/76 147/119/115 62/81/77
g Section16
f 146/168/163 148/169/164 147/170/115
g Section15
f 145/171/165 149/133/129 148/169/164
g Section14
f 141/172/166 71/94/90 69/92/88
g Section15
f 141/172/166 148/169/164 149/133/129
g Section16
f 142/173/167 147/170/115 148/169/164
g Section14
f 138/174/168 69/92/88 70/72/68
g Section15
f 139/175/169 141/172/166 138/174/168
g Section16
f 140/176/114 142/173/167 139/175/169
g Section17
f 61/121/117 140/118/114 150/177/170
g Section16
f 150/178/170 139/175/169 151/179/171
g Section15
f 151/179/171 138/174/168 152/71/67
g Section21
f 87/77/73 153/180/172 84/181/173
g Section20
f 167/78/74 154/182/174 153/180/172
g Section19
f 166/183/175 155/122/118 154/182/174
g Section21
f 85/184/176 156/76/72 83/75/71
g Section20
f 156/76/72 160/185/177 157/186/178
g Section19
f 157/186/178 159/187/179 158/79/75
g Section18
f 58/116/112 162/188/180 59/189/181
g Section19
f 166/183/175 162/188/180 165/120/116
g Section20
f 167/78/74 163/190/182 166/183/175
g Section18
f 59/189/181 158/79/75 62/81/77
g Section19
f 162/188/180 157/186/178 158/79/75
g Section20
f 163/190/182 156/76/72 157/186/178
g Section22
f 86/191/183 174/192/184 171/193/185
g Section23
f 171/193/185 175/194/186 172/195/187
g Section24
f 172/195/187 176/112/108 173/113/109
g Section22
f 86/191/183 179/196/188 83/75/71
g Section23
f 171/193/185 178/197/189 179/196/188
g Section24
f 172/195/187 177/114/110 178/197/189
g Section22
f 84/181/173 174/192/184 87/77/73
g Section23
f 182/198/190 175/194/186 174/192/184
g Section24
f 181/199/191 176/112/108 175/194/186
g Section22
f 85/184/176 179/196/188 168/200/192
g Section23
f 168/200/192 178/197/189 169/201/193
g Section24
f 169/201/193 177/114/110 170/107/103
g Section26
f 79/115/111 195/202/194 192/203/195
g Section27
f 192/203/195 196/204/196 193/205/197
g Section28
f 193/205/197 197/128/124 194/129/125
g Section26
f 79/115/111 185/206/198 81/108/104
g Section27
f 192/203/195 184/207/199 185/206/198
g Section28
f 193/205/197 183/130/126 184/207/199
g Section26
f 82/208/200 195/202/194 80/111/107
g Section27
f 188/209/201 196/204/196 195/202/194
g Section28
f 187/210/202 197/128/124 196/204/196
g Section26
f 78/109/105 185/206/198 189/211/203
g Section27
f 189/211/203 184/207/199 190/212/204
g Section28
f 190/212/204 183/130/126 191/123/119
g Section32
f 208/213/205 56/62/59 203/214/206
f 208/213/205 54/51/49 198/50/48
g Section30
f 89/131/127 201/215/207 207/216/208
g Section31
f 207/216/208 202/69/65 208/213/205
g Section30
f 89/131/127 204/217/209 91/124/120
g Section31
f 207/216/208 203/214/206 204/217/209
g Section30
f 88/125/121 204/217/209 199/218/210
g Section31
f 199/218/210 203/214/206 200/70/66
g Section30
f 92/219/211 201/215/207 90/127/123
g Section31
f 206/220/212 202/69/65 201/215/207
g Head
f 225/221/213 212/222/214 215/223/215
f 224/224/216 210/225/217 218/226/218
f 222/227/219 209/228/220 219/229/221
f 221/230/222 210/225/217 217/231/223
f 212/222/214 221/230/222 217/231/223
f 211/232/224 222/227/219 213/233/225
f 209/228/220 223/234/226 219/229/221
f 210/225/217 223/234/226 218/226/218
f 224/224/216 209/228/220 216/235/227
f 211/232/224 224/224/216 216/235/227
f 212/222/214 224/224/216 215/223/215
f 225/221/213 211/232/224 213/233/225
g Section1
f 23/236/5 227/237/228 21/238/6
f 231/239/229 226/240/230 230/241/231
g Section32
f 321/242/232 234/243/233 235/244/234
g Section1
f 226/240/230 22/245/51 24/246/139
g Section32
f 236/247/235 234/243/233 321/242/232
g Section1
f 229/248/236 230/241/231 227/237/228
g Section32
f 234/243/233 55/249/61 57/250/62
f 52/251/63 234/243/233 57/250/62
f 235/244/234 205/252/64 323/253/237
f 200/254/66 236/247/235 324/255/238
g Section14
f 152/256/67 244/257/239 285/258/240
g Section21
f 299/259/241 252/260/242 253/261/243
f 299/259/241 254/262/244 302/263/245
g Section18
f 296/264/246 60/265/76 159/266/179
g Section9
f 269/267/247 242/268/248 272/269/249
f 273/270/250 241/271/251 269/267/247
f 272/269/249 64/272/84 120/273/149
f 65/274/85 273/270/250 110/275/86
g Section13
f 281/276/252 244/257/239 284/277/253
f 276/278/254 243/279/255 281/276/252
f 284/277/253 72/280/69 126/281/160
f 68/282/92 276/278/254 131/283/93
g Section5
f 75/284/95 258/285/256 101/286/96
f 266/287/257 74/288/98 96/289/138
f 258/285/256 247/290/258 263/291/259
f 247/290/258 266/287/257 263/291/259
g Section25
f 170/292/103 251/293/260 309/294/261
f 250/295/262 180/296/106 308/297/263
f 251/293/260 305/298/264 309/294/261
f 305/298/264 250/295/262 308/297/263
g Section17
f 290/299/265 237/300/266 287/301/267
f 290/299/265 239/302/268 238/303/269
g Section18
f 61/304/117 300/305/270 155/306/118
g Section29
f 191/307/119 257/308/271 312/309/272
f 256/310/273 186/311/122 320/312/274
f 257/308/271 317/313/275 312/309/272
f 255/314/276 320/312/274 317/313/275
g Section14
f 245/315/277 144/316/128 293/317/278
g Section2
f 261/318/279 227/237/228 230/241/231
g Section3
f 262/319/280 264/320/281 261/318/279
g Section4
f 263/291/259 265/321/282 262/319/280
g Section2
f 226/240/230 261/318/279 230/241/231
g Section3
f 260/322/283 262/319/280 261/318/279
g Section4
f 259/323/284 263/291/259 262/319/280
g Section2
f 227/237/228 98/324/136 21/238/6
g Section3
f 264/320/281 97/325/137 98/324/136
g Section4
f 265/321/282 96/289/138 97/325/137
g Section2
f 24/246/139 260/322/283 226/240/230
g Section3
f 100/326/141 260/322/283 99/327/140
g Section4
f 101/286/96 259/323/284 100/326/141
g Section6
f 108/328/142 246/329/285 75/284/95
g Section7
f 109/330/144 275/331/286 108/328/142
g Section8
f 110/275/86 274/332/287 109/330/144
g Section6
f 248/333/288 122/334/98 74/288/98
g Section7
f 270/335/289 121/336/147 122/334/98
g Section8
f 271/337/290 120/273/149 121/336/147
g Section6
f 246/329/285 267/338/291 247/290/258
g Section7
f 275/331/286 268/339/292 267/338/291
g Section8
f 274/332/287 269/267/247 268/339/292
g Section6
f 247/290/258 270/335/289 248/333/288
g Section7
f 267/338/291 271/337/290 270/335/289
g Section8
f 268/339/292 272/269/249 271/337/290
g Section10
f 129/340/152 240/341/293 65/274/85
g Section11
f 130/342/154 278/343/294 129/340/152
g Section12
f 131/283/93 277/344/295 130/342/154
g Section10
f 242/268/248 128/345/156 64/272/84
g Section11
f 282/346/296 127/347/158 128/345/156
g Section12
f 283/348/297 126/281/160 127/347/158
g Section10
f 240/341/293 279/349/298 241/271/251
g Section11
f 278/343/294 280/350/299 279/349/298
g Section12
f 277/344/295 281/276/252 280/350/299
g Section10
f 241/271/251 282/346/296 242/268/248
g Section11
f 279/349/298 283/348/297 282/346/296
g Section12
f 280/350/299 284/277/253 283/348/297
g Section17
f 291/351/300 60/265/76 239/302/268
g Section16
f 292/352/301 146/353/163 291/354/300
g Section15
f 293/317/278 145/355/165 292/352/301
g Section14
f 245/315/277 288/356/302 243/279/255
g Section15
f 288/356/302 292/352/301 289/357/303
g Section16
f 289/357/303 291/354/300 290/358/265
g Section14
f 243/279/255 285/258/240 244/257/239
g Section15
f 288/356/302 286/359/304 285/258/240
g Section16
f 289/357/303 287/360/267 286/359/304
g Section17
f 61/304/117 287/301/267 237/300/266
g Section16
f 150/361/170 286/359/304 287/360/267
g Section15
f 151/362/171 285/258/240 286/359/304
g Section21
f 153/363/172 254/262/244 84/364/173
g Section20
f 154/365/174 302/263/245 153/363/172
g Section19
f 155/306/118 301/366/305 154/365/174
g Section21
f 294/367/306 85/368/176 252/260/242
g Section20
f 294/367/306 160/369/177 161/370/307
g Section19
f 295/371/308 159/266/179 160/369/177
g Section18
f 237/300/266 297/372/309 300/305/270
g Section19
f 297/372/309 301/366/305 300/305/270
g Section20
f 298/373/310 302/263/245 301/366/305
g Section18
f 238/303/269 296/264/246 297/372/309
g Section19
f 297/372/309 295/371/308 298/373/310
g Section20
f 298/373/310 294/367/306 299/259/241
g Section22
f 253/261/243 306/374/311 254/262/244
g Section23
f 303/375/312 307/376/313 306/374/311
g Section24
f 304/377/314 308/297/263 307/376/313
g Section22
f 311/378/315 253/261/243 252/260/242
g Section23
f 310/379/316 303/375/312 311/378/315
g Section24
f 309/294/261 304/377/314 310/379/316
g Section22
f 306/374/311 84/364/173 254/262/244
g Section23
f 307/376/313 182/380/190 306/374/311
g Section24
f 308/297/263 181/381/191 307/376/313
g Section22
f 85/368/176 311/378/315 252/260/242
g Section23
f 168/382/192 310/379/316 311/378/315
g Section24
f 169/383/193 309/294/261 310/379/316
g Section26
f 249/384/317 318/385/318 250/295/262
g Section27
f 315/386/319 319/387/320 318/385/318
g Section28
f 316/388/321 320/312/274 319/387/320
g Section26
f 314/389/322 249/384/317 251/293/260
g Section27
f 313/390/323 315/386/319 314/389/322
g Section28
f 312/309/272 316/388/321 313/390/323
g Section26
f 318/385/318 82/391/200 250/295/262
g Section27
f 319/387/320 188/392/201 318/385/318
g Section28
f 320/312/274 187/393/202 319/387/320
g Section26
f 78/394/105 314/389/322 251/293/260
g Section27
f 189/395/203 313/390/323 314/389/322
g Section28
f 190/396/204 312/309/272 313/390/323
g Section32
f 236/247/235 327/397/324 324/255/238
f 327/397/324 235/244/234 323/253/237
g Section30
f 255/314/276 322/398/325 256/310/273
g Section31
f 326/399/326 323/253/237 322/398/325
g Section30
f 325/400/327 255/314/276 257/308/271
g Section31
f 324/255/238 326/399/326 325/400/327
g Section30
f 88/401/121 325/400/327 257/308/271
g Section31
f 199/402/210 324/255/238 325/400/327
g Section30
f 322/398/325 92/403/211 256/310/273
g Section31
f 323/253/237 206/404/212 322/398/325
g Head
f 344/405/328 331/406/329 333/407/330
f 343/408/331 329/409/332 336/410/333
f 341/411/334 328/412/335 335/413/336
f 329/409/332 340/414/337 336/410/333
f 331/406/329 340/414/337 333/407/330
f 341/411/334 330/415/338 332/416/339
f 328/412/335 342/417/340 337/418/341
f 342/417/340 329/409/332 337/418/341
f 328/412/335 343/408/331 335/413/336
f 330/415/338 343/408/331 334/419/342
f 343/408/331 331/406/329 334/419/342
f 330/415/338 344/405/328 332/416/339
f 349/57/54 49/34/32 345/56/53
f 351/61/58 43/3/3 44/18/16
f 347/59/56 47/26/24 348/58/55
f 348/58/55 48/28/26 349/57/54
f 350/60/57 46/25/23 347/59/56
f 346/64/60 42/1/1 43/3/3
f 345/56/53 50/38/36 20/36/34
f 351/61/58 45/19/17 350/60/57
f 371/420/343 355/421/344 353/422/345
f 23/423/5 26/424/14 356/425/346
f 28/426/11 30/427/21 360/428/347
f 26/424/14 28/426/11 358/429/348
f 372/430/349 357/431/350 355/421/344
f 374/432/351 357/431/350 373/433/352
f 32/434/18 34/435/28 364/436/353
f 30/427/21 32/434/18 362/437/354
f 375/438/355 359/439/356 374/432/351
f 376/440/357 365/441/358 363/442/359
f 375/438/355 363/442/359 361/443/360
f 34/435/28 36/444/30 366/445/361
f 36/444/30 38/446/33 368/447/362
f 378/448/363 365/441/358 377/449/364
f 38/446/33 40/450/52 370/451/365
f 378/448/363 369/452/366 367/453/367
f 379/454/368 39/455/37 369/452/366
f 369/452/366 37/456/39 367/453/367
f 363/442/359 35/457/41 33/458/369
f 367/453/367 35/457/41 365/441/358
f 363/442/359 31/459/42 361/443/360
f 359/439/356 27/460/44 357/431/350
f 361/443/360 29/461/45 359/439/356
f 353/422/345 25/462/47 22/463/51
f 355/421/344 27/460/44 25/462/47
f 370/451/365 51/464/38 379/454/368
f 368/447/362 370/451/365 380/465/370
f 368/447/362 384/466/371 366/445/361
f 362/437/354 383/467/372 382/468/373
f 366/445/361 383/467/372 364/436/353
f 360/428/347 382/468/373 385/469/374
f 358/429/348 385/469/374 386/470/375
f 356/425/346 386/470/375 381/471/376
f 354/472/377 381/471/376 371/420/343
f 378/448/363 384/466/371 380/465/370
f 386/470/375 372/430/349 381/471/376
f 376/440/357 382/468/373 383/467/372
f 377/449/364 383/467/372 384/466/371
f 375/438/355 385/469/374 382/468/373
f 381/471/376 372/430/349 371/420/343
f 379/454/368 380/465/370 370/451/365
f 374/432/351 386/470/375 385/469/374
f 368/447/362 38/446/33 370/451/365
f 40/55/52 38/35/33 20/36/34
f 38/35/33 36/32/30 18/33/31
f 366/445/361 36/444/30 368/447/362
f 36/32/30 34/30/28 16/31/29
f 34/30/28 32/20/18 14/22/20
f 32/20/18 30/23/21 12/21/19
f 30/23/21 28/13/11 10/15/13
f 28/13/11 26/16/14 8/14/12
f 26/16/14 23/10/5 6/12/10
f 364/436/353 34/435/28 366/445/361
f 362/437/354 32/434/18 364/436/353
f 360/428/347 30/427/21 362/437/354
f 358/429/348 28/426/11 360/428/347
f 356/425/346 26/424/14 358/429/348
f 354/472/377 23/423/5 356/425/346
f 42/1/1 3/48/46 5/2/2
g Section1
f 2/4/4 4/63/9 23/5/5
f 1/7/7 3/54/46 42/8/1
g Head
f 43/3/3 5/2/2 7/17/15
f 7/17/15 9/24/22 45/19/17
f 9/24/22 11/45/43 46/25/23
f 47/26/24 13/29/27 15/27/25
f 46/25/23 11/45/43 13/29/27
f 15/27/25 17/42/40 49/34/32
f 49/34/32 17/42/40 19/37/35
f 50/38/36 19/37/35 39/39/37
f 37/41/39 39/39/37 19/37/35
f 13/29/27 33/473/369 35/43/41
f 35/43/41 37/41/39 17/42/40
f 31/44/42 33/473/369 13/29/27
f 27/46/44 29/47/45 9/24/22
f 29/47/45 31/44/42 11/45/43
f 3/48/46 22/474/51 25/49/47
f 5/2/2 25/49/47 27/46/44
g Section1
f 1/7/7 24/143/139 22/53/51
g Head
f 20/36/34 50/38/36 51/40/38
f 349/57/54 345/56/53 18/33/31
f 12/21/19 347/59/56 348/58/55
f 348/58/55 349/57/54 16/31/29
f 10/15/13 350/60/57 347/59/56
f 8/14/12 351/61/58 350/60/57
f 6/12/10 346/64/60 351/61/58
g Section1
f 41/9/8 42/8/1 4/63/9
g Head
f 4/11/9 42/1/1 346/64/60
g Section32
f 55/65/61 56/62/59 53/52/50
f 52/67/63 57/66/62 53/52/50
f 205/68/64 52/67/63 54/51/49
f 200/70/66 203/214/206 56/62/59
g Section14
f 152/71/67 138/174/168 70/72/68
g Section21
f 164/74/70 86/191/183 83/75/71
f 87/77/73 86/191/183 164/74/70
g Section18
f 158/79/75 159/187/179 60/80/76
g Section9
f 113/82/78 116/87/83 67/83/79
f 117/85/81 113/82/78 66/84/80
f 116/87/83 120/154/149 64/88/84
f 117/85/81 63/86/82 65/89/85
g Section13
f 134/91/87 137/95/91 70/72/68
f 123/93/89 134/91/87 69/92/88
f 137/95/91 126/165/160 72/73/69
f 123/93/89 71/94/90 68/96/92
g Section5
f 93/98/94 73/105/101 75/99/95
f 107/101/97 96/142/138 74/102/98
f 93/98/94 104/106/102 76/104/100
f 107/101/97 77/103/99 76/104/100
g Section25
f 170/107/103 177/114/110 81/108/104
f 180/110/106 82/208/200 80/111/107
f 173/113/109 79/115/111 81/108/104
f 173/113/109 176/112/108 80/111/107
g Section17
f 58/116/112 59/189/181 143/117/113
f 143/117/113 59/189/181 62/81/77
g Section18
f 165/120/116 58/116/112 61/121/117
g Section29
f 191/123/119 183/130/126 91/124/120
f 186/126/122 92/219/211 90/127/123
f 194/129/125 89/131/127 91/124/120
f 197/128/124 90/127/123 89/131/127
g Section14
f 144/132/128 68/96/92 71/94/90
g Section2
f 2/4/4 105/135/131 102/134/130
g Section3
f 105/135/131 106/137/133 103/136/132
g Section4
f 106/137/133 107/101/97 104/106/102
g Section2
f 1/7/7 41/9/8 102/134/130
g Section3
f 95/138/134 102/134/130 103/136/132
g Section4
f 94/139/135 103/136/132 104/106/102
g Section2
f 2/4/4 21/6/6 98/140/136
g Section3
f 105/135/131 98/140/136 97/141/137
g Section4
f 106/137/133 97/141/137 96/142/138
g Section2
f 24/143/139 1/7/7 95/138/134
g Section3
f 95/138/134 94/139/135 100/145/141
g Section4
f 94/139/135 93/98/94 101/100/96
g Section6
f 73/105/101 119/147/143 108/146/142
g Section7
f 119/147/143 118/149/145 109/148/144
g Section8
f 118/149/145 117/85/81 110/90/86
g Section6
f 77/103/99 74/102/98 122/150/98
g Section7
f 114/151/146 122/150/98 121/152/147
g Section8
f 115/153/148 121/152/147 120/154/149
g Section6
f 73/105/101 76/104/100 111/155/150
g Section7
f 119/147/143 111/155/150 112/156/151
g Section8
f 118/149/145 112/156/151 113/82/78
g Section6
f 76/104/100 77/103/99 114/151/146
g Section7
f 111/155/150 114/151/146 115/153/148
g Section8
f 112/156/151 115/153/148 116/87/83
g Section10
f 63/86/82 125/158/153 129/157/152
g Section11
f 125/158/153 124/160/155 130/159/154
g Section12
f 124/160/155 123/93/89 131/97/93
g Section10
f 67/83/79 64/88/84 128/161/156
g Section11
f 135/162/157 128/161/156 127/163/158
g Section12
f 136/164/159 127/163/158 126/165/160
g Section10
f 63/86/82 66/84/80 132/166/161
g Section11
f 125/158/153 132/166/161 133/167/162
g Section12
f 124/160/155 133/167/162 134/91/87
g Section10
f 66/84/80 67/83/79 135/162/157
g Section11
f 132/166/161 135/162/157 136/164/159
g Section12
f 133/167/162 136/164/159 137/95/91
g Section17
f 60/80/76 146/475/163 147/119/115
g Section16
f 146/168/163 145/171/165 148/169/164
g Section15
f 145/171/165 144/132/128 149/133/129
g Section14
f 141/172/166 149/133/129 71/94/90
g Section15
f 141/172/166 142/173/167 148/169/164
g Section16
f 142/173/167 143/476/113 147/170/115
g Section14
f 138/174/168 141/172/166 69/92/88
g Section15
f 139/175/169 142/173/167 141/172/166
g Section16
f 140/176/114 143/476/113 142/173/167
g Section17
f 61/121/117 58/116/112 140/118/114
g Section16
f 150/178/170 140/176/114 139/175/169
g Section15
f 151/179/171 139/175/169 138/174/168
g Section21
f 87/77/73 167/78/74 153/180/172
g Section20
f 167/78/74 166/183/175 154/182/174
g Section19
f 166/183/175 165/120/116 155/122/118
g Section21
f 85/184/176 161/477/307 156/76/72
g Section20
f 156/76/72 161/477/307 160/185/177
g Section19
f 157/186/178 160/185/177 159/187/179
g Section18
f 58/116/112 165/120/116 162/188/180
g Section19
f 166/183/175 163/190/182 162/188/180
g Section20
f 167/78/74 164/74/70 163/190/182
g Section18
f 59/189/181 162/188/180 158/79/75
g Section19
f 162/188/180 163/190/182 157/186/178
g Section20
f 163/190/182 164/74/70 156/76/72
g Section22
f 86/191/183 87/77/73 174/192/184
g Section23
f 171/193/185 174/192/184 175/194/186
g Section24
f 172/195/187 175/194/186 176/112/108
g Section22
f 86/191/183 171/193/185 179/196/188
g Section23
f 171/193/185 172/195/187 178/197/189
g Section24
f 172/195/187 173/113/109 177/114/110
g Section22
f 84/181/173 182/198/190 174/192/184
g Section23
f 182/198/190 181/199/191 175/194/186
g Section24
f 181/199/191 180/110/106 176/112/108
g Section22
f 85/184/176 83/75/71 179/196/188
g Section23
f 168/200/192 179/196/188 178/197/189
g Section24
f 169/201/193 178/197/189 177/114/110
g Section26
f 79/115/111 80/111/107 195/202/194
g Section27
f 192/203/195 195/202/194 196/204/196
g Section28
f 193/205/197 196/204/196 197/128/124
g Section26
f 79/115/111 192/203/195 185/206/198
g Section27
f 192/203/195 193/205/197 184/207/199
g Section28
f 193/205/197 194/129/125 183/130/126
g Section26
f 82/208/200 188/209/201 195/202/194
g Section27
f 188/209/201 187/210/202 196/204/196
g Section28
f 187/210/202 186/126/122 197/128/124
g Section26
f 78/109/105 81/108/104 185/206/198
g Section27
f 189/211/203 185/206/198 184/207/199
g Section28
f 190/212/204 184/207/199 183/130/126
g Section32
f 208/213/205 198/50/48 56/62/59
f 208/213/205 202/69/65 54/51/49
g Section30
f 89/131/127 90/127/123 201/215/207
g Section31
f 207/216/208 201/215/207 202/69/65
g Section30
f 89/131/127 207/216/208 204/217/209
g Section31
f 207/216/208 208/213/205 203/214/206
g Section30
f 88/125/121 91/124/120 204/217/209
g Section31
f 199/218/210 204/217/209 203/214/206
g Section30
f 92/219/211 206/220/212 201/215/207
g Section31
f 206/220/212 205/68/64 202/69/65
g Head
f 225/221/213 214/478/378 212/222/214
f 224/224/216 217/231/223 210/225/217
f 222/227/219 216/235/227 209/228/220
f 221/230/222 220/479/379 210/225/217
f 212/222/214 214/478/378 221/230/222
f 211/232/224 216/235/227 222/227/219
f 209/228/220 218/226/218 223/234/226
f 210/225/217 220/479/379 223/234/226
f 224/224/216 218/226/218 209/228/220
f 211/232/224 215/223/215 224/224/216
f 212/222/214 217/231/223 224/224/216
f 225/221/213 215/223/215 211/232/224
g Section1
f 23/236/5 229/248/236 227/237/228
f 231/239/229 228/480/380 226/240/230
f 226/240/230 228/480/380 22/245/51
f 229/248/236 231/239/229 230/241/231
g Section32
f 234/243/233 236/247/235 55/249/61
f 52/251/63 235/244/234 234/243/233
f 235/244/234 52/251/63 205/252/64
f 200/254/66 55/249/61 236/247/235
g Section14
f 152/256/67 72/280/69 244/257/239
g Section21
f 299/259/241 294/367/306 252/260/242
f 299/259/241 253/261/243 254/262/244
g Section18
f 296/264/246 239/302/268 60/265/76
g Section9
f 269/267/247 241/271/251 242/268/248
f 273/270/250 240/341/293 241/271/251
f 272/269/249 242/268/248 64/272/84
f 65/274/85 240/341/293 273/270/250
g Section13
f 281/276/252 243/279/255 244/257/239
f 276/278/254 245/315/277 243/279/255
f 284/277/253 244/257/239 72/280/69
f 68/282/92 245/315/277 276/278/254
g Section5
f 75/284/95 246/329/285 258/285/256
f 266/287/257 248/333/288 74/288/98
f 258/285/256 246/329/285 247/290/258
f 247/290/258 248/333/288 266/287/257
g Section25
f 170/292/103 78/394/105 251/293/260
f 250/295/262 82/391/200 180/296/106
f 251/293/260 249/384/317 305/298/264
f 305/298/264 249/384/317 250/295/262
g Section17
f 290/299/265 238/303/269 237/300/266
f 290/299/265 291/351/300 239/302/268
g Section18
f 61/304/117 237/300/266 300/305/270
g Section29
f 191/307/119 88/401/121 257/308/271
f 256/310/273 92/403/211 186/311/122
f 257/308/271 255/314/276 317/313/275
f 255/314/276 256/310/273 320/312/274
g Section14
f 245/315/277 68/282/92 144/316/128
g Section2
f 261/318/279 264/320/281 227/237/228
g Section3
f 262/319/280 265/321/282 264/320/281
g Section4
f 263/291/259 266/287/257 265/321/282
g Section2
f 226/240/230 260/322/283 261/318/279
g Section3
f 260/322/283 259/323/284 262/319/280
g Section4
f 259/323/284 258/285/256 263/291/259
g Section2
f 227/237/228 264/320/281 98/324/136
g Section3
f 264/320/281 265/321/282 97/325/137
g Section4
f 265/321/282 266/287/257 96/289/138
g Section2
f 24/246/139 99/327/140 260/322/283
g Section3
f 100/326/141 259/323/284 260/322/283
g Section4
f 101/286/96 258/285/256 259/323/284
g Section6
f 108/328/142 275/331/286 246/329/285
g Section7
f 109/330/144 274/332/287 275/331/286
g Section8
f 110/275/86 273/270/250 274/332/287
g Section6
f 248/333/288 270/335/289 122/334/98
g Section7
f 270/335/289 271/337/290 121/336/147
g Section8
f 271/337/290 272/269/249 120/273/149
g Section6
f 246/329/285 275/331/286 267/338/291
g Section7
f 275/331/286 274/332/287 268/339/292
g Section8
f 274/332/287 273/270/250 269/267/247
g Section6
f 247/290/258 267/338/291 270/335/289
g Section7
f 267/338/291 268/339/292 271/337/290
g Section8
f 268/339/292 269/267/247 272/269/249
g Section10
f 129/340/152 278/343/294 240/341/293
g Section11
f 130/342/154 277/344/295 278/343/294
g Section12
f 131/283/93 276/278/254 277/344/295
g Section10
f 242/268/248 282/346/296 128/345/156
g Section11
f 282/346/296 283/348/297 127/347/158
g Section12
f 283/348/297 284/277/253 126/281/160
g Section10
f 240/341/293 278/343/294 279/349/298
g Section11
f 278/343/294 277/344/295 280/350/299
g Section12
f 277/344/295 276/278/254 281/276/252
g Section10
f 241/271/251 279/349/298 282/346/296
g Section11
f 279/349/298 280/350/299 283/348/297
g Section12
f 280/350/299 281/276/252 284/277/253
g Section17
f 291/351/300 146/481/163 60/265/76
g Section16
f 292/352/301 145/355/165 146/353/163
g Section15
f 293/317/278 144/316/128 145/355/165
g Section14
f 245/315/277 293/317/278 288/356/302
g Section15
f 288/356/302 293/317/278 292/352/301
g Section16
f 289/357/303 292/352/301 291/354/300
g Section14
f 243/279/255 288/356/302 285/258/240
g Section15
f 288/356/302 289/357/303 286/359/304
g Section16
f 289/357/303 290/358/265 287/360/267
g Section17
f 61/304/117 150/482/170 287/301/267
g Section16
f 150/361/170 151/362/171 286/359/304
g Section15
f 151/362/171 152/256/67 285/258/240
g Section21
f 153/363/172 302/263/245 254/262/244
g Section20
f 154/365/174 301/366/305 302/263/245
g Section19
f 155/306/118 300/305/270 301/366/305
g Section21
f 294/367/306 161/370/307 85/368/176
g Section20
f 294/367/306 295/371/308 160/369/177
g Section19
f 295/371/308 296/264/246 159/266/179
g Section18
f 237/300/266 238/303/269 297/372/309
g Section19
f 297/372/309 298/373/310 301/366/305
g Section20
f 298/373/310 299/259/241 302/263/245
g Section18
f 238/303/269 239/302/268 296/264/246
g Section19
f 297/372/309 296/264/246 295/371/308
g Section20
f 298/373/310 295/371/308 294/367/306
g Section22
f 253/261/243 303/375/312 306/374/311
g Section23
f 303/375/312 304/377/314 307/376/313
g Section24
f 304/377/314 305/298/264 308/297/263
g Section22
f 311/378/315 303/375/312 253/261/243
g Section23
f 310/379/316 304/377/314 303/375/312
g Section24
f 309/294/261 305/298/264 304/377/314
g Section22
f 306/374/311 182/380/190 84/364/173
g Section23
f 307/376/313 181/381/191 182/380/190
g Section24
f 308/297/263 180/296/106 181/381/191
g Section22
f 85/368/176 168/382/192 311/378/315
g Section23
f 168/382/192 169/383/193 310/379/316
g Section24
f 169/383/193 170/292/103 309/294/261
g Section26
f 249/384/317 315/386/319 318/385/318
g Section27
f 315/386/319 316/388/321 319/387/320
g Section28
f 316/388/321 317/313/275 320/312/274
g Section26
f 314/389/322 315/386/319 249/384/317
g Section27
f 313/390/323 316/388/321 315/386/319
g Section28
f 312/309/272 317/313/275 316/388/321
g Section26
f 318/385/318 188/392/201 82/391/200
g Section27
f 319/387/320 187/393/202 188/392/201
g Section28
f 320/312/274 186/311/122 187/393/202
g Section26
f 78/394/105 189/395/203 314/389/322
g Section27
f 189/395/203 190/396/204 313/390/323
g Section28
f 190/396/204 191/307/119 312/309/272
g Section32
f 236/247/235 321/242/232 327/397/324
f 327/397/324 321/242/232 235/244/234
g Section30
f 255/314/276 326/399/326 322/398/325
g Section31
f 326/399/326 327/397/324 323/253/237
g Section30
f 325/400/327 326/399/326 255/314/276
g Section31
f 324/255/238 327/397/324 326/399/326
g Section30
f 88/401/121 199/402/210 325/400/327
g Section31
f 199/402/210 200/254/66 324/255/238
g Section30
f 322/398/325 206/404/212 92/403/211
g Section31
f 323/253/237 205/252/64 206/404/212
g Head
f 344/405/328 334/419/342 331/406/329
f 343/408/331 337/418/341 329/409/332
f 341/411/334 338/483/381 328/412/335
f 329/409/332 339/484/382 340/414/337
f 331/406/329 336/410/333 340/414/337
f 341/411/334 335/413/336 330/415/338
f 328/412/335 338/483/381 342/417/340
f 342/417/340 339/484/382 329/409/332
f 328/412/335 337/418/341 343/408/331
f 330/415/338 335/413/336 343/408/331
f 343/408/331 336/410/333 331/406/329
f 330/415/338 334/419/342 344/405/328
f 349/57/54 48/28/26 49/34/32
f 351/61/58 346/64/60 43/3/3
f 347/59/56 46/25/23 47/26/24
f 348/58/55 47/26/24 48/28/26
f 350/60/57 45/19/17 46/25/23
f 345/56/53 49/34/32 50/38/36
f 351/61/58 44/18/16 45/19/17
f 371/420/343 372/430/349 355/421/344
f 372/430/349 373/433/352 357/431/350
f 374/432/351 359/439/356 357/431/350
f 375/438/355 361/443/360 359/439/356
f 376/440/357 377/449/364 365/441/358
f 375/438/355 376/440/357 363/442/359
f 378/448/363 367/453/367 365/441/358
f 378/448/363 379/454/368 369/452/366
f 379/454/368 51/464/38 39/455/37
f 369/452/366 39/455/37 37/456/39
f 363/442/359 365/441/358 35/457/41
f 367/453/367 37/456/39 35/457/41
f 363/442/359 33/458/369 31/459/42
f 359/439/356 29/461/45 27/460/44
f 361/443/360 31/459/42 29/461/45
f 353/422/345 355/421/344 25/462/47
f 355/421/344 357/431/350 27/460/44
f 370/451/365 40/450/52 51/464/38
f 368/447/362 380/465/370 384/466/371
f 362/437/354 364/436/353 383/467/372
f 366/445/361 384/466/371 383/467/372
f 360/428/347 362/437/354 382/468/373
f 358/429/348 360/428/347 385/469/374
f 356/425/346 358/429/348 386/470/375
f 354/472/377 356/425/346 381/471/376
f 378/448/363 377/449/364 384/466/371
f 386/470/375 373/433/352 372/430/349
f 376/440/357 375/438/355 382/468/373
f 377/449/364 376/440/357 383/467/372
f 375/438/355 374/432/351 385/469/374
f 379/454/368 378/448/363 380/465/370
f 374/432/351 373/433/352 386/470/375
l 352 232
l 233 352
l 23 232
l 233 22
